<?xml version="1.0" encoding="utf-8"?>
<!-- Generator: Adobe Illustrator 27.0.0, SVG Export Plug-In . SVG Version: 6.00 Build 0)  -->
<svg version="1.1" id="Artwork_1_" xmlns="http://www.w3.org/2000/svg" xmlns:xlink="http://www.w3.org/1999/xlink" x="0px" y="0px"
	 viewBox="0 0 8174.4 1985" style="enable-background:new 0 0 8174.4 1985;" xml:space="preserve">
<style type="text/css">
	.st0{fill:#12123A;}
	.st1{fill:#BFA290;}
</style>
<g id="Wordmark">
	<g>
		<g>
			<path class="st0" d="M2795.6,843c0,147.2-94.3,250.9-254.1,250.9h-160.7v259.3h-142V593.1h142h161.7
				C2700.2,593.1,2795.6,689.5,2795.6,843z M2646.2,839.9c0-62.2-38.4-121.3-129.6-121.3h-135.8v252h134.8
				C2607.9,970.5,2646.2,909.4,2646.2,839.9z"/>
			<path class="st0" d="M3093.9,824.3c161.7,0,268.6,112,268.6,270.6c0,159.7-106.8,270.6-268.6,270.6
				c-161.7,0-269.6-111-269.6-270.6C2824.3,936.3,2932.1,824.3,3093.9,824.3z M3093.9,1244.3c79.8,0,132.8-61.2,132.8-149.3
				s-52.8-149.3-132.8-149.3c-80.9,0-132.8,61.2-132.8,149.3S3013,1244.3,3093.9,1244.3z"/>
			<path class="st0" d="M3446.3,578.6h135.8v774.6h-135.8V578.6z"/>
			<path class="st0" d="M4196.5,838.8l-246.8,635.6c-63.3,163.8-196,144.1-294.5,107.9l36.3-122.3c56,34.2,122.3,37.3,147.2-33.1
				l16.6-43.6l-219.8-544.4h143.1l140,371.2l136.8-371.2L4196.5,838.8L4196.5,838.8z"/>
			<path class="st0" d="M5002.7,847.1c-27-86.1-98.5-129.6-186.6-129.6c-136.8,0-221.9,101.6-221.9,255.1
				c0,159.7,90.2,254.1,220.8,254.1c95.4,0,173.2-51.9,200.1-125.5l134.8,58c-52.8,132.8-185.6,206.3-336,206.3
				c-220.8,0-369.1-154.5-369.1-390.9s149.3-395.1,371.2-395.1c163.8,0,284.1,89.2,321.5,220.8L5002.7,847.1z"/>
			<path class="st0" d="M5474.9,824.3c161.7,0,268.6,112,268.6,270.6c0,159.7-106.8,270.6-268.6,270.6
				c-161.7,0-269.6-111-269.6-270.6C5205.3,936.3,5313.1,824.3,5474.9,824.3z M5474.9,1244.3c79.8,0,132.8-61.2,132.8-149.3
				s-52.9-149.3-132.8-149.3c-80.9,0-132.8,61.2-132.8,149.3S5394,1244.3,5474.9,1244.3z"/>
			<path class="st0" d="M6068.5,824.3c161.7,0,268.6,112,268.6,270.6c0,159.7-106.8,270.6-268.6,270.6
				c-161.7,0-269.6-111-269.6-270.6C5798.9,936.3,5906.7,824.3,6068.5,824.3z M6068.5,1244.3c79.8,0,132.8-61.2,132.8-149.3
				s-52.8-149.3-132.8-149.3c-80.9,0-132.8,61.2-132.8,149.3S5987.6,1244.3,6068.5,1244.3z"/>
			<path class="st0" d="M6419.8,1353.1V578.5h135.8v460.4l189.8-200.1h169l-222.9,235.4l209.5,279h-164.9l-133.8-185.6l-46.7,49.8
				v135.8L6419.8,1353.1L6419.8,1353.1z"/>
			<path class="st0" d="M6958.7,663.6c0-45.6,36.3-80.9,81.9-80.9s81.9,35.2,81.9,80.9c0,46.7-36.3,81.9-81.9,81.9
				C6994.9,745.5,6958.7,710.2,6958.7,663.6z M7109.1,838.8v514.3h-135.8V838.8H7109.1z"/>
			<path class="st0" d="M7706.6,1143.6h-387.8c8.3,76.7,68.5,107.9,130.7,107.9s101.6-29.1,124.4-73.6l112,44.6
				c-37.3,90.2-128.6,144.1-236.5,144.1c-152.5,0-258.2-107.9-258.2-270.6c0-161.7,103.7-272.7,260.2-272.7
				c153.5,0,255.1,107.9,255.1,272.7L7706.6,1143.6L7706.6,1143.6z M7320.9,1050.4h247.8c-5.2-77.7-52.8-115.1-119.2-115.1
				C7378.9,935.2,7333.3,975.6,7320.9,1050.4z"/>
			<path class="st0" d="M7965,1258.8c41.5,0,73.6-15.5,73.6-51.9c0-27-17.6-41.5-49.8-49.8l-68.5-18.7
				c-111-29.1-149.3-84-149.3-151.4c0-92.3,70.5-163.8,195-163.8c101.6,0,181.4,48.8,197.1,135.8l-121.3,28
				c-4.2-35.2-33.1-54.9-71.6-54.9c-39.4,0-66.4,19.7-66.4,52.8c0,24.9,16.6,40.4,58,51.9l67.4,17.6
				c94.3,24.9,145.2,76.7,145.2,152.5c0,94.3-74.6,159.7-207.4,159.7c-128.6,0-198-62.2-210.5-146.2l124.4-20.7
				C7883.1,1236,7915.2,1258.8,7965,1258.8z"/>
		</g>
	</g>
</g>
<g id="Ideogram">
	<g id="Octogon_00000055691441322506859590000004738072988748899733_">
		<path class="st1" d="M1768.7,713.2c-9.5-3.5-18.9-7.3-28.3-11.1c-231.1-94.9-415.9-279.6-510.8-510.8c-3.7-9-7.3-18.1-10.7-27.3
			h-0.1c-31.7-62.7-144.9-109.1-279.6-109.1s-247.9,46.3-279.6,109h-0.2c-3.4,9.2-7,18.3-10.7,27.3
			c69.3,187.1,168,359.9,290.5,512.9c8,9.9,16.1,19.9,24.2,29.6c8.1,9.8,16.5,19.5,24.8,29.2l0.1,0.1c4.9,5.6,9.8,11.2,14.8,16.8
			c14.9,16.7,30,33,45.5,49.1l0,0c38.4,40,78.4,78.1,120.1,114.5l0,0c19.2,16.8,38.9,33.1,58.8,49.1
			c-65.7,52.7-127.8,109.8-185.7,170.7c-21.3,17.8-46.1,33.5-53.5,28.1l13.1,15.8l0,0l11.6,14.5c112.1,139.9,203.7,293.6,273,457.6
			c103.1-177.4,262.8-317.7,454.3-396.3c9.4-3.9,18.7-7.6,28.3-11.1c62.4-32,108.6-145,108.6-279.3
			C1877.3,858.1,1831.1,745.2,1768.7,713.2z"/>
		<path class="st1" d="M914.8,1251.3c-8.1-9.8-16.5-19.5-24.8-29.2l-0.1-0.1c-4.9-5.6-9.8-11.2-14.8-16.8
			c-14.9-16.7-30-33-45.5-49.1l0,0c-38.4-40-78.4-78.1-120.1-114.5l0,0c-19.2-16.8-38.9-33.1-58.8-49.1
			c65-52.1,126.4-108.4,183.7-168.7c21.4-18.5,47.2-34.9,54.8-29.4l-12.5-16.7l0,0l-11.6-14.5C753,623.3,661.4,469.6,592.1,305.6
			C489.1,483,329.4,623.4,137.9,702.1c-9.4,3.9-18.7,7.6-28.3,11.1C47.2,745.2,1,858.1,1,992.5s46.1,247.3,108.6,279.3
			c9.5,3.5,18.9,7.3,28.3,11.1c231.1,94.9,415.9,279.6,510.8,510.8c3.7,9,7.3,18.1,10.7,27.3h0.1c31.7,62.7,144.9,109.1,279.6,109.1
			s247.9-46.4,279.6-109.1h0.2c3.4-9.2,7-18.3,10.7-27.3c-69.3-187.1-168-359.9-290.5-512.9C931.1,1270.9,923.1,1261.1,914.8,1251.3
			z"/>
	</g>
</g>
</svg>
