<?xml version="1.0" standalone="no"?>
<!DOCTYPE svg PUBLIC "-//W3C//DTD SVG 20010904//EN"
 "http://www.w3.org/TR/2001/REC-SVG-20010904/DTD/svg10.dtd">
<svg version="1.0" xmlns="http://www.w3.org/2000/svg"
 width="1981.000000pt" height="1981.000000pt" viewBox="0 0 1981.000000 1981.000000"
 preserveAspectRatio="xMidYMid meet">
<metadata>
Created by potrace 1.14, written by Peter Selinger 2001-2017
</metadata>
<g transform="translate(0.000000,1981.000000) scale(0.100000,-0.100000)"
fill="#000000" stroke="none">
<path d="M9618 19805 c-2 -1 -55 -6 -118 -9 -63 -4 -128 -9 -145 -11 -16 -2
-57 -6 -90 -9 -33 -4 -71 -8 -85 -10 -443 -57 -832 -153 -1180 -293 -96 -38
-177 -75 -300 -138 -271 -138 -525 -346 -662 -540 -63 -89 -84 -130 -147 -290
-42 -108 -49 -135 -42 -160 14 -50 178 -467 273 -695 180 -432 293 -680 534
-1165 337 -680 619 -1180 1038 -1842 57 -90 331 -501 412 -618 325 -470 866
-1172 1163 -1511 20 -22 47 -53 60 -70 74 -88 254 -291 424 -478 240 -262 652
-683 887 -906 30 -29 91 -87 135 -129 44 -42 132 -123 195 -180 63 -57 120
-109 125 -115 6 -6 44 -40 85 -75 41 -36 80 -69 85 -75 6 -6 42 -38 80 -71 39
-32 77 -66 86 -75 8 -8 35 -31 59 -50 24 -19 48 -39 54 -45 6 -5 38 -32 71
-60 33 -27 62 -52 65 -55 3 -3 25 -21 50 -40 25 -19 47 -37 50 -41 3 -4 42
-36 88 -72 l83 -65 -53 -44 c-29 -24 -96 -79 -148 -122 -179 -147 -506 -427
-596 -511 -6 -5 -44 -39 -84 -75 -39 -36 -84 -76 -99 -89 -149 -135 -335 -314
-645 -624 -235 -234 -404 -394 -464 -439 -179 -135 -332 -214 -399 -206 -28 3
-30 2 -20 -12 17 -22 90 -113 102 -126 13 -16 61 -75 124 -154 28 -36 57 -72
64 -80 168 -208 578 -757 745 -997 7 -10 42 -61 79 -113 106 -152 400 -600
517 -790 60 -96 117 -187 127 -202 11 -15 19 -30 19 -33 0 -3 9 -18 19 -33 36
-51 288 -485 373 -642 17 -30 59 -107 93 -170 172 -314 457 -882 600 -1195 55
-121 197 -442 227 -512 16 -40 34 -73 38 -73 5 0 15 12 22 28 48 93 353 565
469 726 171 236 419 553 540 691 235 268 276 313 483 524 116 119 352 344 446
426 30 27 57 51 60 54 3 3 34 31 70 61 36 30 70 60 77 66 6 6 67 56 135 110
68 55 125 102 128 105 3 3 91 69 195 147 105 78 195 145 200 150 39 29 421
282 510 337 137 85 309 187 395 233 36 20 92 51 125 69 57 32 564 287 575 289
8 1 50 20 125 54 85 39 332 141 437 180 110 41 163 70 253 137 331 245 610
716 788 1328 35 118 74 271 83 320 2 14 6 35 8 48 35 174 45 231 50 277 4 30
9 66 11 80 10 54 14 88 21 165 3 44 8 88 9 97 19 100 27 717 12 938 -8 123
-35 385 -42 410 -2 8 -7 38 -10 66 -3 28 -8 61 -10 75 -3 13 -12 60 -20 104
-8 44 -17 91 -20 105 -3 14 -7 36 -10 50 -15 78 -82 324 -121 445 -72 221
-194 502 -285 654 -140 237 -319 443 -489 562 -89 63 -105 71 -270 135 -80 31
-164 64 -187 75 -23 10 -44 19 -47 19 -3 0 -29 11 -58 24 -29 13 -73 33 -98
44 -25 11 -88 39 -140 62 -266 119 -752 380 -1050 563 -112 69 -400 256 -410
267 -3 3 -25 19 -50 35 -56 38 -167 118 -289 209 -51 39 -105 80 -120 91 -53
39 -229 182 -326 264 -229 192 -337 293 -610 566 -220 220 -302 306 -425 445
-30 35 -60 68 -65 74 -6 6 -44 52 -85 101 -41 50 -78 92 -81 95 -3 3 -23 28
-44 55 -20 28 -41 52 -45 55 -4 3 -22 26 -41 51 -19 25 -86 115 -150 200 -130
173 -307 426 -397 569 -115 181 -306 498 -307 510 0 3 -12 25 -27 50 -160 273
-410 805 -563 1198 -26 67 -63 148 -82 180 -206 343 -641 639 -1222 831 -80
27 -164 53 -186 60 -22 6 -71 19 -110 30 -68 19 -172 43 -265 61 -25 5 -55 11
-66 14 -12 2 -39 7 -60 10 -22 4 -64 11 -94 16 -30 5 -77 12 -105 15 -47 6
-62 8 -147 19 -18 3 -71 8 -118 12 -47 3 -101 8 -120 11 -39 5 -707 13 -712 8z"/>
<path d="M6140 16992 c-136 -225 -512 -781 -550 -812 -3 -3 -19 -23 -35 -45
-32 -43 -256 -327 -265 -335 -3 -3 -30 -34 -60 -70 -30 -36 -57 -67 -60 -70
-3 -3 -23 -25 -44 -50 -173 -199 -607 -641 -785 -800 -46 -41 -89 -80 -95 -85
-39 -37 -247 -213 -331 -280 -55 -44 -102 -83 -105 -86 -14 -15 -371 -280
-470 -348 -176 -121 -467 -311 -475 -311 -3 0 -31 -17 -62 -37 -32 -20 -96
-59 -143 -86 -435 -253 -875 -465 -1370 -662 -151 -60 -234 -101 -285 -142
-180 -143 -299 -277 -429 -483 -73 -114 -188 -341 -236 -465 -17 -44 -35 -89
-40 -100 -32 -69 -124 -386 -164 -560 -45 -200 -55 -259 -91 -520 -3 -27 -8
-69 -20 -176 -14 -124 -20 -301 -20 -559 1 -383 8 -487 62 -895 8 -66 60 -324
88 -440 136 -565 376 -1060 654 -1350 162 -168 254 -230 466 -314 167 -66 311
-126 405 -168 220 -100 293 -134 425 -200 306 -153 706 -380 883 -500 35 -24
66 -43 68 -43 5 0 214 -140 224 -150 15 -15 100 -70 108 -70 6 0 12 -4 14 -8
2 -5 46 -39 98 -77 92 -66 400 -302 410 -314 3 -3 25 -22 50 -42 25 -20 55
-45 66 -55 12 -11 43 -37 70 -59 226 -187 589 -534 821 -785 34 -36 74 -79 90
-97 26 -28 89 -98 163 -183 12 -14 39 -45 59 -70 20 -25 39 -47 42 -50 3 -3
58 -70 122 -150 64 -80 129 -160 144 -179 16 -19 36 -46 45 -60 10 -14 56 -78
103 -141 462 -623 919 -1453 1207 -2195 62 -160 82 -200 149 -295 211 -300
644 -576 1189 -757 139 -46 483 -137 561 -148 24 -3 51 -8 59 -10 16 -5 49
-10 120 -20 24 -4 47 -8 50 -10 3 -1 36 -6 75 -10 38 -4 72 -8 75 -10 3 -1 43
-6 90 -10 47 -4 87 -8 90 -10 3 -2 61 -7 130 -11 239 -16 878 -9 979 11 10 2
54 6 97 10 43 4 81 9 84 10 3 2 34 6 70 10 36 3 72 8 80 10 8 2 35 7 60 10 63
9 283 53 355 72 33 8 68 16 77 18 86 17 355 104 513 166 138 54 406 189 505
254 209 137 384 298 482 445 61 91 81 133 147 302 l42 108 -25 67 c-25 71
-150 393 -165 428 -5 11 -23 54 -39 95 -374 919 -887 1937 -1395 2765 -213
347 -506 798 -639 983 -48 67 -212 298 -243 342 -33 48 -179 245 -185 250 -3
3 -39 50 -80 105 -187 250 -518 659 -740 915 -31 36 -68 78 -81 94 -13 16 -29
34 -35 40 -5 6 -50 56 -99 111 -48 55 -103 116 -121 135 -18 19 -47 51 -64 70
-423 465 -943 976 -1470 1446 -140 124 -436 375 -592 502 -111 90 -149 132
-120 132 6 0 71 51 260 207 58 48 334 284 348 297 6 6 39 36 74 66 86 74 270
240 349 314 36 34 101 95 145 136 45 41 232 226 416 409 184 184 373 366 420
404 170 138 335 233 425 245 l53 7 -88 117 c-49 65 -94 124 -102 133 -35 38
-226 282 -361 460 -198 262 -220 291 -262 350 -22 32 -51 72 -65 90 -124 163
-463 665 -658 971 -137 215 -387 624 -424 694 -11 19 -25 44 -31 55 -22 37
-204 360 -237 420 -156 286 -211 393 -368 710 -151 304 -217 440 -257 530 -13
28 -36 79 -53 115 -25 55 -64 143 -195 443 -11 26 -23 47 -26 47 -3 0 -49 -71
-101 -158z"/>
</g>
</svg>
